HIERARCHY
ROOT Hips
{
   OFFSET 0.00000 0.00000 0.00000
   CHANNELS 6 Xposition Yposition Zposition Zrotation Xrotation Yrotation
   JOINT Spine
   {
      OFFSET 0.000000 11.890501 0.000000
      CHANNELS 3 Zrotation Xrotation Yrotation
      JOINT Spine1
      {
         OFFSET -0.000000 25.657401 0.127660
         CHANNELS 3 Zrotation Xrotation Yrotation
         JOINT HEad
         {
            OFFSET 0.000000 8.734161 0.011340
            CHANNELS 3 Zrotation Xrotation Yrotation
            End Site
            {
               OFFSET -0.290000 12.774200 2.513950
            }
         }
         JOINT LeftShoulder1
         {
            OFFSET 8.990000 -0.362250 -0.220000
            CHANNELS 3 Zrotation Xrotation Yrotation
            JOINT LeftArm
            {
               OFFSET 10.282700 -0.003380 0.322120
               CHANNELS 3 Zrotation Xrotation Yrotation
               JOINT LeftForeArm
               {
                  OFFSET 32.766900 0.099140 -1.424340
                  CHANNELS 3 Zrotation Xrotation Yrotation
                  JOINT LeftHand
                  {
                     OFFSET 27.564301 0.085360 1.022160
                     CHANNELS 3 Zrotation Xrotation Yrotation
                     End Site
                     {
                        OFFSET 16.744301 -0.600000 1.502910
                     }
                  }
               }
            }
         }
         JOINT RightShoulder
         {
            OFFSET -8.990000 -0.362250 -0.220000
            CHANNELS 3 Zrotation Xrotation Yrotation
            JOINT RightArm
            {
               OFFSET -10.282700 -0.003380 0.322120
               CHANNELS 3 Zrotation Xrotation Yrotation
               JOINT RightForeArm
               {
                  OFFSET -32.897098 0.099140 -1.424340
                  CHANNELS 3 Zrotation Xrotation Yrotation
                  JOINT RightHand
                  {
                     OFFSET -27.492101 0.085360 1.022160
                     CHANNELS 3 Zrotation Xrotation Yrotation
                     End Site
                     {
                        OFFSET -16.631201 -0.600000 1.502910
                     }
                  }
               }
            }
         }
      }
   }
   JOINT LeftUpLeg
   {
      OFFSET 8.945800 -8.667070 0.101650
      CHANNELS 3 Zrotation Xrotation Yrotation
      JOINT LeftLeg
      {
         OFFSET 0.000000 -44.422697 1.372700
         CHANNELS 3 Zrotation Xrotation Yrotation
         JOINT LeftFoot
         {
            OFFSET -0.253550 -42.092399 -1.460590
            CHANNELS 3 Zrotation Xrotation Yrotation
            JOINT LeftToes
            {
               OFFSET -0.040000 -4.415090 8.499099
               CHANNELS 3 Zrotation Xrotation Yrotation
               End Site
               {
                  OFFSET 0.080000 -0.047450 9.779790
               }
            }
         }
      }
   }
   JOINT RightUpLeg
   {
      OFFSET -8.945800 -8.667070 0.101650
      CHANNELS 3 Zrotation Xrotation Yrotation
      JOINT RightLeg
      {
         OFFSET 0.000000 -44.422697 1.372700
         CHANNELS 3 Zrotation Xrotation Yrotation
         JOINT RightFoot
         {
            OFFSET 0.253550 -42.092399 -1.460590
            CHANNELS 3 Zrotation Xrotation Yrotation
            JOINT RightToes
            {
               OFFSET 0.040000 -4.415090 8.499099
               CHANNELS 3 Zrotation Xrotation Yrotation
               End Site
               {
                  OFFSET -0.080000 -0.137450 9.779790
               }
            }
         }
      }
   }
}
MOTION
Frames: 9
Frame Time: 0.016670
-14.295367 85.138243 -42.319998 38.228442 31.116259 121.130290 10.533892 38.516304 117.226851 39.675230 -6.472885 -99.658887 15.270901 36.038540 -16.324968 -29.586006 -62.567859 1.354449 -19.050716 34.383353 -59.049540 -14.924346 21.285634 -51.405445 -27.329185 -57.149029 -94.604513 -38.953453 66.560412 60.798874 133.007825 -4.624574 178.896766 -33.388840 66.482999 84.856249 1.273598 44.050274 -6.093506 9.622371 20.787233 52.489522 6.844374 20.753661 61.792790 -11.627800 58.999734 -49.747283 33.847190 23.860004 -74.454349 -51.738789 49.177314 35.806768 14.668945 30.857859 39.531871 -21.548019 -4.793510 31.914093 59.769292 -67.665065 -47.196426
-14.372011 84.308499 -42.177719 35.287069 32.144390 122.575695 11.552669 41.633268 124.914570 35.012301 -4.585441 -101.065544 16.812173 31.418843 -19.987567 -29.913244 -59.636479 -5.693370 -18.298833 34.835037 -51.186599 -3.749573 20.334009 -58.961833 -37.281017 -63.381861 -99.136214 -50.488765 62.274475 63.846573 142.326321 -13.405210 179.310511 -41.714489 62.177965 78.443083 9.336781 30.045900 -6.762562 7.553452 17.815411 51.976500 7.886400 22.059583 61.061140 -9.606638 57.534030 -50.673829 31.329729 23.236329 -75.146247 -51.612956 47.989722 35.028734 12.255062 31.210604 38.908033 -15.310076 -3.554959 32.612500 54.467880 -67.939741 -47.315114
-14.520530 83.455676 -42.001867 32.425124 33.856845 124.604958 13.259332 40.180087 132.780257 25.443109 -6.715619 -103.482031 19.310989 23.590215 -25.152218 -35.288538 -54.609712 -1.321916 -15.868488 46.103039 -49.476688 6.959693 15.758879 -60.812200 -47.549024 -67.490513 -106.696106 -53.430698 64.998109 56.210763 139.525506 -19.421846 167.520170 -47.416444 61.320195 67.235501 6.039877 31.508906 7.404547 4.956608 15.073095 51.460336 9.335882 23.715364 61.191706 -7.735470 55.967810 -51.234325 28.746258 22.457172 -75.417050 -51.911818 46.990154 34.502270 10.955221 32.371664 38.082645 -15.221293 -3.189858 33.096662 54.342969 -68.902245 -47.990781
-14.670710 82.609709 -41.809401 29.618583 34.450412 127.959400 11.089308 43.883743 143.039447 17.426019 -5.696584 -105.818973 21.202698 16.173164 -30.919795 -39.202912 -49.914479 -9.069280 -17.209136 48.916814 -43.050211 11.814647 13.116689 -62.232995 -53.243930 -68.326043 -112.779646 -54.041167 67.733094 48.885003 136.829480 -24.536468 159.177941 -45.698651 61.932720 51.932660 21.604546 11.216269 3.112507 2.940154 11.844636 50.248479 11.660145 24.882835 61.605192 -7.009314 54.171296 -52.172987 25.681547 21.409141 -75.326072 -50.278119 46.702433 33.340889 10.929344 32.786103 36.719777 -13.874128 -2.395289 34.008331 52.410842 -69.464335 -47.801216
-14.770329 81.826123 -41.649727 27.555746 34.848861 130.511992 8.141774 48.034497 153.753596 10.488211 -3.763881 -108.280205 22.518017 11.556552 -36.332669 -44.095117 -48.140133 -17.034077 -18.801340 53.303250 -40.549409 15.432708 12.074240 -61.897804 -56.100718 -68.484394 -115.890934 -53.416468 70.617264 41.410802 133.876475 -27.901453 154.061897 -38.344334 58.900287 33.907279 -5.465561 30.181325 17.912338 0.803535 7.975364 48.513625 14.975873 27.297134 62.433017 -6.458214 52.537480 -52.769816 22.264796 20.241904 -74.770381 -49.079216 46.540311 32.185470 11.065768 33.238747 34.843814 -13.829461 -2.334167 34.592586 51.482479 -70.209973 -47.710483
-14.909019 80.918397 -41.335983 24.604186 35.244760 133.935679 4.443931 51.889200 164.321019 5.246621 -1.838106 -110.854981 23.592792 7.857787 -41.238070 -49.787783 -46.629227 -20.899861 -20.635511 56.995722 -38.803647 16.124548 12.478307 -64.972202 -58.041814 -67.287376 -117.420309 -49.970610 74.670019 32.185019 131.500006 -32.525986 151.119575 -33.001251 51.881991 21.723400 -3.052149 20.466628 21.662387 -0.633841 4.647340 46.912365 16.324914 29.157910 62.445701 -5.385895 51.536093 -53.543250 19.155086 19.345949 -74.546870 -47.272443 46.072232 31.055026 11.041091 33.819378 32.403541 -13.035724 -2.528202 34.744305 50.381046 -70.632864 -47.686052
-15.207629 79.918078 -40.744748 23.782843 35.933895 136.970168 -1.758918 54.574731 173.299385 3.870572 -1.171334 -113.948907 24.777669 6.794485 -44.620622 -53.874370 -47.068264 -20.207596 -20.822663 58.779583 -39.197093 4.935886 14.248898 -68.523046 -58.494853 -59.975352 -117.502176 -42.610702 78.997073 24.628988 130.758712 -33.553861 153.283160 -30.459854 40.651247 20.202322 -18.117253 23.345739 34.428788 -0.836499 3.889993 44.987505 17.192477 30.270691 61.939038 -4.013864 50.947190 -54.389121 16.058422 18.573094 -74.824244 -44.128722 46.460586 30.729465 11.439419 36.074634 30.257748 -11.922178 -2.666163 35.262327 50.138561 -70.246187 -48.230124
-15.481902 79.112452 -40.066175 24.374310 35.803128 138.885695 -9.764411 58.218722 181.272934 4.638876 -0.820976 -116.478276 24.865225 7.658078 -45.738423 -55.073554 -48.688672 -18.455016 -19.392980 56.733655 -40.577566 -1.305703 18.246198 -70.778108 -52.071132 -66.918082 -105.986129 -35.112083 81.458462 18.700109 131.930336 -32.859439 157.653279 -30.349737 30.908204 24.007167 -7.997601 22.442938 21.006440 0.265352 2.500102 42.776262 18.145548 32.284265 60.840982 -3.090821 50.439332 -55.756730 13.092616 17.894717 -75.378193 -42.443479 47.497095 29.862779 12.324995 36.259811 28.776482 -10.587441 -4.036568 36.200614 49.173780 -69.759208 -47.960410
-15.651117 78.663763 -39.404952 24.024803 35.671841 140.203047 -15.667908 60.689359 187.982789 4.249190 -1.276834 -118.422189 23.940766 10.382933 -44.565434 -56.600152 -50.029466 -16.472377 -20.378972 57.660416 -42.558752 -12.787506 20.854606 -70.290378 -57.663428 -50.119464 -108.436363 -27.465015 78.767661 14.921574 138.106889 -30.990751 163.182754 -31.971911 22.561105 32.708953 -20.385055 15.316011 35.439488 1.156061 1.257605 41.180863 17.859372 32.318741 58.880315 -2.920590 49.499221 -57.938944 10.747707 17.461478 -76.071696 -41.009668 47.333108 29.179565 12.766254 36.706560 27.343426 -9.720123 -5.771783 36.975939 47.990688 -69.254573 -47.328836
